<?xml version="1.0" encoding="utf-8"?>
<!-- Generator: Adobe Illustrator 15.0.2, SVG Export Plug-In  -->
<!DOCTYPE svg PUBLIC "-//W3C//DTD SVG 1.1//EN" "http://www.w3.org/Graphics/SVG/1.1/DTD/svg11.dtd" [
	<!ENTITY ns_flows "http://ns.adobe.com/Flows/1.0/">
]>
<svg version="1.1"
	 xmlns="http://www.w3.org/2000/svg" xmlns:xlink="http://www.w3.org/1999/xlink" xmlns:a="http://ns.adobe.com/AdobeSVGViewerExtensions/3.0/"
	 x="0px" y="0px" width="125px" height="40px" viewBox="-0.216 -0.728 125 40" enable-background="new -0.216 -0.728 125 40"
	 xml:space="preserve">
<defs>
</defs>
<g>
	<g>
		<path fill="#AB293B" d="M11.022,11.905c-0.305,0.269-0.467,0.661-0.467,1.178c0,0.447,0.13,0.823,0.371,1.126
			c0.272,0.339,0.642,0.499,1.092,0.499c0.852,0,1.463-0.749,1.463-1.696c0-0.838-0.611-1.464-1.447-1.464
			C11.633,11.548,11.295,11.673,11.022,11.905"/>
		<path fill="#AB293B" d="M74.049,11.905c-0.306,0.269-0.465,0.661-0.465,1.178c0,0.447,0.128,0.823,0.371,1.126
			c0.27,0.338,0.642,0.499,1.092,0.499c0.851,0,1.463-0.749,1.463-1.696c0-0.838-0.612-1.464-1.448-1.464
			C74.661,11.548,74.324,11.673,74.049,11.905"/>
		<path fill="#AB293B" d="M38.727,23.978c0,0.189-0.097,0.577-0.372,0.859c-0.529,0.587-1.144,0.991-1.714,0.991
			c-0.972,0-1.444-0.748-1.444-1.71c0-0.774,0.4-1.268,1.226-1.502c1.078-0.282,1.816-0.469,2.219-0.588
			c0.063-0.023,0.085,0.023,0.085,0.188V23.978 M42.277,27.351c-0.024-0.408-0.07-0.54-0.094-1.471
			c-0.005-0.167-0.065-0.258-0.169-0.236c-0.127,0.023-0.374,0.054-0.437,0.047c-0.306-0.035-0.379-0.657-0.379-1.15
			c0-0.444,0-1.22,0.021-2.324v-2.114c0-1.478-0.445-2.559-1.354-3.262c-0.717-0.564-1.647-0.846-2.789-0.846
			c-1.46,0-2.69,0.471-3.681,1.402c0.005,0.366,0.098,0.712,0.273,1.012c0.192,0.321,0.48,0.56,0.859,0.71l0,0l0.163-0.086
			c0.866-0.773,1.486-1.168,2.247-1.168c0.506,0,1.11,0.182,1.438,0.478c0.447,0.4,0.328,0.916,0.328,1.41
			c0,0.163-0.233,0.329-0.719,0.47c-1.014,0.256-1.817,0.469-2.409,0.609c-2.113,0.541-3,1.738-3,3.427
			c0,2.045,1.268,3.594,3.359,3.594c1.182,0,2.134-0.374,2.832-1.15l0.359-0.398c0.021,0,0.063,0.094,0.168,0.304
			c0.19,0.399,0.486,0.729,0.909,0.941c0.317,0.164,0.655,0.258,0.972,0.258c0.465,0,0.785-0.031,1.039-0.174
			C42.277,27.587,42.288,27.492,42.277,27.351"/>
		<path fill="#AB293B" d="M68.249,23.978c0,0.189-0.095,0.577-0.368,0.859c-0.53,0.587-1.146,0.991-1.717,0.991
			c-0.971,0-1.445-0.748-1.445-1.71c0-0.774,0.404-1.268,1.228-1.502c1.076-0.282,1.817-0.469,2.217-0.588
			c0.065-0.023,0.086,0.023,0.086,0.188V23.978 M71.802,27.351c-0.024-0.408-0.071-0.54-0.096-1.471
			c-0.004-0.167-0.063-0.258-0.171-0.236c-0.125,0.023-0.371,0.054-0.434,0.047c-0.307-0.035-0.382-0.657-0.382-1.15
			c0-0.444,0-1.22,0.023-2.324v-2.114c0-1.478-0.445-2.559-1.355-3.262c-0.717-0.564-1.646-0.846-2.788-0.846
			c-1.46,0-2.69,0.471-3.68,1.402c0.006,0.366,0.099,0.712,0.271,1.012c0.194,0.321,0.481,0.56,0.861,0.71l0,0l0.162-0.086
			c0.866-0.773,1.485-1.168,2.246-1.168c0.509,0,1.111,0.182,1.44,0.478c0.445,0.4,0.327,0.916,0.327,1.41
			c0,0.163-0.233,0.329-0.72,0.47c-1.013,0.256-1.816,0.469-2.407,0.609c-2.113,0.541-3,1.738-3,3.427
			c0,2.045,1.269,3.594,3.359,3.594c1.184,0,2.134-0.374,2.832-1.15l0.358-0.398c0.021,0,0.063,0.094,0.17,0.304
			c0.19,0.399,0.486,0.729,0.908,0.941c0.318,0.164,0.655,0.258,0.973,0.258c0.466,0,0.785-0.031,1.037-0.174
			C71.802,27.587,71.811,27.492,71.802,27.351"/>
		<path fill="#AB293B" d="M8.685,24.705c0.041,0-0.466,0.025-1.5,0.047C6.149,24.777,5.325,24.8,4.67,24.8
			c-0.697,0-1.18-0.009-1.446-0.021l-0.269-0.107L2.873,24.44c-0.003-0.238-0.007-0.714-0.021-1.425
			c-0.02-1.197-0.02-2.442-0.02-3.71c0-1.574,0-3.029,0.02-4.342c0.021-0.917,0.043-1.762,0.064-2.514
			c0.018-0.553,0.021-0.855,0.021-0.893l-0.126-0.14c-0.042,0-0.232,0-0.57,0.022c-0.338,0.025-0.571,0.025-0.719,0.025
			c-0.095,0-0.261,0-0.496-0.011c-0.271,0.006-0.499,0.09-0.684,0.247c-0.211,0.186-0.323,0.458-0.323,0.819l0.002,0.095
			c0.02,0.774,0.02,1.598,0.042,2.465c0.021,1.269,0.021,2.652,0.021,4.156c0,1.504,0,2.935-0.021,4.298
			c-0.021,0.915-0.021,1.83-0.042,2.722C0,26.983,0,27.358,0,27.382l0.125,0.141c0.083,0,0.548-0.005,1.396-0.022
			c1.057-0.023,2.008-0.023,2.874-0.023c0.402,0,1.248,0,2.494,0.023l0.291,0.004c0.42-0.002,0.773-0.132,1.059-0.374
			c0.321-0.282,0.491-0.697,0.491-1.239c0.002-0.146,0.008-0.311,0.019-0.505C8.77,24.987,8.77,24.8,8.77,24.824L8.685,24.705"/>
		<path fill="#AB293B" d="M12.371,27.484c0.279,0,0.514-0.086,0.704-0.248c0.212-0.187,0.324-0.458,0.324-0.818
			c-0.002-0.147-0.007-0.309-0.009-0.492c-0.021-1.148-0.043-2.182-0.043-3.073v-1.763c0-0.962,0.021-2.021,0.043-3.146
			c0.018-0.977,0.037-1.477,0.041-1.518l-0.062-0.103c-0.042,0-0.254,0-0.613,0.024c-0.212,0.013-0.384,0.018-0.531,0.021
			c-0.416,0.002-0.767,0.133-1.05,0.375c-0.31,0.272-0.477,0.668-0.488,1.184c0.02,1.094,0.04,2.162,0.04,3.187v1.691
			c0,0.938-0.021,1.972-0.042,3.12c-0.016,0.906-0.034,1.398-0.039,1.476l0.103,0.122c0.063,0,0.253,0,0.55-0.022
			c0.316-0.024,0.549-0.024,0.717-0.024C12.108,27.476,12.234,27.479,12.371,27.484"/>
		<path fill="#AB293B" d="M29.964,27.48c0.279,0,0.514-0.09,0.704-0.248c0.208-0.183,0.319-0.449,0.323-0.801
			c-0.01-0.361-0.014-0.761-0.028-1.209c-0.022-0.892-0.022-1.901-0.022-3.006v-2.653c0-1.222-0.358-2.161-1.077-2.795
			c-0.572-0.517-1.248-0.774-2.05-0.774c-1.183,0-1.995,0.407-2.923,1.441l-0.354,0.39c-0.178-0.413-0.427-0.767-0.754-1.057
			c-0.57-0.517-1.246-0.774-2.05-0.774c-1.183,0-1.993,0.407-2.924,1.441l-0.139,0.132l-0.071-0.12
			c-0.064-0.293-0.103-0.596-0.208-1.089c-0.021-0.14-0.085-0.211-0.148-0.211c-0.888,0.117-1.639,0.134-2.295,0.157l-0.146,0.083
			c0.009,0.036,0.04,0.456,0.094,1.216c0.067,0.895,0.138,1.82,0.138,2.781v2.421c0,1.056-0.02,2.136-0.042,3.237
			c-0.018,0.884-0.034,1.347-0.042,1.412l0.083,0.068c0.085,0,0.297,0,0.634-0.022c0.195-0.014,0.35-0.02,0.471-0.021
			c0.423,0,0.779-0.132,1.066-0.378c0.319-0.278,0.487-0.688,0.49-1.224c-0.021-1.144-0.041-2.284-0.041-3.448l0.043-1.445
			c0-0.188,0.154-0.788,0.265-1.022c0.573-1.203,1.233-1.714,2.163-1.714c0.781,0,1.115,0.821,1.115,2.254v1.784
			c0,1.13,0,2.138-0.021,3.005c-0.021,1.223-0.063,2.185-0.063,2.115l0.084,0.116c0.085,0,0.297,0,0.656-0.022
			c0.357-0.024,0.57-0.024,0.675-0.024c0.063,0,0.17,0.001,0.312,0.005c0.279,0,0.514-0.086,0.704-0.248
			c0.21-0.186,0.32-0.455,0.323-0.812c-0.009-0.358-0.013-0.754-0.028-1.199c-0.022-0.892-0.022-1.901-0.022-3.006v-1.255
			l0.002,0.003l-0.002-0.025v-0.16c0.015-0.283,0.098-0.637,0.182-0.817c0.573-1.203,1.102-1.714,2.032-1.714
			c0.781,0,1.247,0.821,1.247,2.254v1.784c0,1.13,0,2.138-0.021,3.005c-0.021,1.223-0.064,2.185-0.064,2.115l0.084,0.116
			c0.085,0,0.296,0,0.655-0.022c0.359-0.024,0.57-0.024,0.676-0.024c0.063,0,0.17,0.001,0.313,0.007V27.48"/>
		<path fill="#AB293B" d="M87.539,27.234c0.208-0.181,0.318-0.447,0.323-0.795c-0.009-0.363-0.015-0.766-0.028-1.219
			c-0.022-0.89-0.022-1.899-0.022-3.004v-2.653c0-1.222-0.357-2.161-1.076-2.793c-0.572-0.518-1.248-0.776-2.05-0.776
			c-1.183,0-2.128,0.41-3.058,1.441l-0.14,0.131l-0.071-0.118c-0.064-0.291-0.103-0.596-0.208-1.088
			c-0.021-0.142-0.084-0.212-0.147-0.212c-0.888,0.117-1.64,0.133-2.295,0.158l-0.146,0.08c0.007,0.038,0.038,0.456,0.093,1.218
			c0.067,0.894,0.138,1.818,0.138,2.78v2.419c0,1.058-0.021,2.137-0.041,3.24c-0.016,0.886-0.033,1.347-0.039,1.409l0.08,0.069
			c0.085,0,0.298,0,0.634-0.021c0.2-0.014,0.354-0.02,0.476-0.021c0.423,0,0.777-0.132,1.066-0.378
			c0.305-0.268,0.472-0.656,0.488-1.162c-0.022-1.161-0.042-2.325-0.042-3.51l0.042-1.445c0-0.188,0.152-0.788,0.266-1.022
			c0.572-1.205,1.234-1.715,2.163-1.715c0.781,0,1.248,0.825,1.248,2.256v1.783c0,1.128,0,2.138-0.022,3.005
			c-0.02,1.223-0.062,2.186-0.062,2.112l0.084,0.118c0.085,0,0.295,0,0.655-0.021c0.358-0.023,0.57-0.023,0.677-0.023
			c0.064,0,0.178,0,0.329,0.006C87.124,27.48,87.354,27.393,87.539,27.234"/>
		<path fill="#AB293B" d="M75.4,27.484c0.279,0,0.513-0.086,0.702-0.248c0.212-0.187,0.325-0.458,0.325-0.818
			c-0.003-0.147-0.007-0.309-0.01-0.492c-0.022-1.148-0.043-2.182-0.043-3.073v-1.763c0-0.962,0.021-2.021,0.043-3.146
			c0.021-0.977,0.036-1.477,0.042-1.518l-0.064-0.103c-0.042,0-0.253,0-0.612,0.024c-0.211,0.013-0.383,0.018-0.531,0.021
			c-0.415,0.002-0.766,0.133-1.05,0.375c-0.311,0.272-0.478,0.667-0.488,1.184c0.021,1.094,0.041,2.162,0.041,3.187v1.691
			c0,0.938-0.021,1.972-0.041,3.12c-0.019,0.906-0.035,1.398-0.04,1.476l0.102,0.122c0.063,0,0.254,0,0.551-0.022
			c0.316-0.024,0.549-0.024,0.719-0.024C75.135,27.476,75.261,27.479,75.4,27.484"/>
		<path fill="#AB293B" d="M61.644,16.281c-0.449-0.227-0.767-0.287-1.169-0.287c-0.527,0-0.961,0.144-1.434,0.392
			c-0.401,0.214-0.669,0.484-1.038,1.064l-0.149,0.118l-0.072-0.085c-0.119-0.496-0.108-0.63-0.2-1.064
			c-0.03-0.141-0.065-0.212-0.149-0.212c-0.358,0.047-1.061,0.05-2.266,0.096l-0.143,0.102c0.012,0.004,0.084,0.491,0.102,1.237
			c0.021,0.873,0.109,1.664,0.109,2.557v3.287c0,1.08-0.02,2.065-0.042,2.936c-0.015,0.644-0.032,0.988-0.04,1.049l0.081,0.054
			c0.084,0,0.297,0,0.633-0.022c0.34-0.024,0.572-0.024,0.678-0.024c0.065,0,0.176,0.001,0.327,0.007
			c0.27-0.006,0.498-0.09,0.683-0.247c0.213-0.186,0.324-0.46,0.324-0.818l0,0l-0.001-0.093c-0.023-0.914-0.042-1.948-0.042-3.097
			v-1.293c0-0.539,0.019-0.894,0.064-1.104c0.062-0.212,0.152-0.775,0.347-1.089c0.415-0.668,0.715-1.114,1.301-1.307
			c0.925-0.301,1.505,0.201,1.837,0.292c0.156,0.041,0.214-0.015,0.229-0.156c0.157-1.3,0.159-1.828,0.182-2.082L61.644,16.281"/>
		<path fill="#AB293B" d="M48.235,18.178c0.529,0,0.973,0.164,1.331,0.47c0.404,0.353,0.613,0.87,0.613,1.55
			c0,0.587-0.168,1.08-0.485,1.48c-0.359,0.444-0.846,0.656-1.437,0.656c-1.12,0-1.922-0.987-1.922-2.232
			C46.334,19,47.136,18.178,48.235,18.178 M50.391,26.278c-0.995-0.117-1.818-0.211-2.431-0.257c-0.972-0.094-1.458-0.4-1.458-0.94
			c0-0.188,0.105-0.376,0.338-0.54c0.084-0.068,0.19-0.095,0.338-0.095c0.063,0,0.698,0.095,0.953,0.095
			c1.245,0,2.301-0.375,3.126-1.148c0.887-0.823,1.331-1.902,1.331-3.265c0-0.375-0.063-0.799-0.211-1.268
			c-0.051-0.138-0.062-0.284,0.042-0.355c0.144-0.073,0.309-0.054,0.482-0.09c0.236-0.054,0.426-0.165,0.572-0.333
			c0.182-0.217,0.236-0.506,0.193-0.856l0.005-0.001h-0.005c-0.015-0.311-0.074-0.667-0.088-0.878
			c-0.013-0.211-0.165-0.328-0.504-0.328c-0.74,0-1.352,0.258-1.858,0.8c-0.064,0.07-0.168,0.07-0.296-0.047
			c-0.614-0.517-1.437-0.776-2.472-0.776c-1.163,0-2.136,0.329-2.959,0.987c-1.036,0.845-1.563,1.925-1.563,3.239
			c0,1.526,0.485,2.631,1.458,3.312c0.106,0.071,0.106,0.142-0.02,0.212c-0.953,0.539-1.438,1.244-1.438,2.066
			c0,0.798,0.357,1.384,1.057,1.737l0.074,0.045c0.296,0.164,1.146,0.577,2.391,0.727c1.312,0.106,2.375,0.186,2.985,0.448
			c0.53,0.212,0.804,0.588,0.804,1.104c0,0.585-0.359,1.009-1.099,1.29c-0.507,0.188-1.077,0.281-1.733,0.281
			c-0.717,0-1.329-0.115-1.837-0.351c-0.591-0.306-0.888-0.704-0.888-1.221c0-0.421,0.182-0.79,0.541-1.107v-0.005l0.017-0.076
			c-0.308-0.221-0.92-0.306-1.019-0.316c-0.685-0.015-1.207,0.184-1.569,0.578c-0.315,0.355-0.491,0.799-0.503,1.327
			c0,0.914,0.358,1.688,1.098,2.322c0.886,0.775,2.156,1.15,3.824,1.15c3.635,0,5.729-1.479,5.729-4.107
			C53.794,27.967,52.78,26.725,50.391,26.278"/>
		<path fill="#AB293B" d="M58.412,32.529l-0.043-0.071c-0.149-0.079-0.335-0.113-0.555-0.113c-0.39,0-0.689,0.2-0.91,0.597
			c-0.178,0.333-0.27,0.719-0.27,1.166c0,0.44,0.114,0.661,0.342,0.661c0.256,0,0.533-0.206,0.838-0.611
			c0.235-0.307,0.399-0.604,0.498-0.89C58.333,33.09,58.369,32.84,58.412,32.529 M58.795,34.86c0,0.276,0.028,0.44,0.028,0.406
			l-0.335,0.027c-0.248,0.021-0.348,0.028-0.298,0.028l-0.028-0.043l-0.028-0.341c0-0.142,0.007-0.29,0.028-0.448l0.015-0.171
			c0.021,0-0.021,0.086-0.128,0.257c-0.12,0.192-0.263,0.362-0.44,0.504c-0.256,0.207-0.527,0.314-0.817,0.314
			c-0.192,0-0.363-0.065-0.505-0.199c-0.213-0.2-0.318-0.52-0.318-0.962c0-0.617,0.149-1.155,0.447-1.62
			c0.355-0.546,0.853-0.816,1.486-0.816c0.2,0,0.392,0.028,0.569,0.085l0.027-0.007c0.122-0.946,0.193-1.579,0.214-1.883l0.03-0.036
			c0.147,0.007,0.248,0.014,0.298,0.014l0.207-0.007l0.141-0.007l0.037,0.042c-0.072,0.47-0.214,1.421-0.42,2.865
			C58.867,33.836,58.795,34.498,58.795,34.86"/>
		<path fill="#AB293B" d="M61.831,32.599c0-0.191-0.122-0.283-0.356-0.283c-0.262,0-0.496,0.114-0.703,0.334
			c-0.221,0.234-0.362,0.539-0.434,0.903l0.02,0.027C61.339,33.36,61.831,33.034,61.831,32.599 M60.289,34.092
			c0,0.498,0.233,0.747,0.696,0.747c0.278,0,0.702-0.228,0.98-0.485l0.037,0.008c0.07,0.136,0.156,0.265,0.262,0.386l-0.005,0.042
			c-0.265,0.214-0.492,0.361-0.683,0.447c-0.228,0.107-0.477,0.157-0.753,0.157c-0.312,0-0.563-0.072-0.754-0.213
			c-0.291-0.221-0.434-0.563-0.434-1.032c0-0.718,0.286-1.427,0.748-1.862c0.347-0.326,0.738-0.49,1.186-0.49
			c0.32,0,0.563,0.085,0.725,0.249c0.129,0.127,0.192,0.277,0.192,0.453c0,0.456-0.234,0.811-0.71,1.075
			c-0.277,0.149-0.767,0.313-1.464,0.483L60.289,34.092z"/>
		<path fill="#AB293B" d="M65.333,32.871c-0.085,0.646-0.178,1.434-0.271,2.374l-0.057,0.042c-0.155-0.008-0.256-0.014-0.306-0.014
			l-0.321,0.014l-0.027-0.05c0.037-0.163,0.149-0.975,0.342-2.438c0.007-0.021,0.107-0.959,0.313-2.807l0.028-0.036
			c0.164,0.007,0.277,0.015,0.327,0.015l0.206-0.008l0.136-0.007l0.036,0.042C65.666,30.474,65.53,31.427,65.333,32.871"/>
		<path fill="#AB293B" d="M68.417,32.544l-0.043-0.072c-0.168-0.086-0.354-0.128-0.554-0.128c-0.391,0-0.688,0.2-0.91,0.597
			c-0.177,0.333-0.27,0.719-0.27,1.166c0,0.44,0.115,0.661,0.342,0.661c0.255,0,0.532-0.206,0.838-0.611
			c0.235-0.307,0.397-0.604,0.497-0.89C68.338,33.09,68.374,32.851,68.417,32.544 M68.154,34.938c0-0.142,0.008-0.29,0.03-0.448
			l0.014-0.171c0.02,0-0.021,0.086-0.128,0.257c-0.114,0.192-0.265,0.356-0.448,0.504c-0.264,0.207-0.533,0.314-0.825,0.314
			c-0.198,0-0.369-0.065-0.513-0.199c-0.205-0.2-0.312-0.52-0.312-0.962c0-0.617,0.148-1.155,0.447-1.62
			c0.348-0.546,0.847-0.816,1.486-0.816c0.292,0,0.556,0.057,0.789,0.172l0.063,0.026l0.214-0.076l0.178-0.079l0.015,0.035
			c0,0.007-0.022,0.164-0.072,0.47c-0.064,0.362-0.106,0.653-0.133,0.888c-0.107,0.824-0.165,1.366-0.165,1.628
			c0,0.276,0.027,0.44,0.027,0.406c0,0.007-0.112,0.015-0.334,0.027l-0.277,0.028l-0.026-0.041L68.154,34.938z"/>
		<path fill="#AB293B" d="M73.081,34.988c-0.299,0.278-0.633,0.413-1.002,0.413c-0.163,0-0.299-0.042-0.414-0.135
			c-0.147-0.115-0.219-0.328-0.219-0.64c0-0.122,0.057-0.584,0.171-1.386c0.021-0.163,0.055-0.422,0.104-0.783l-0.028-0.028
			l-0.297,0.007l-0.198,0.008l-0.03-0.028c0.03-0.149,0.05-0.314,0.064-0.497l0.021-0.022c0.05,0,0.32,0.015,0.512,0.015
			l0.037-0.021c0.028-0.221,0.056-0.525,0.083-0.911l0.036-0.05c0.178-0.057,0.35-0.12,0.514-0.184
			c0.127-0.05,0.19-0.078,0.197-0.078l0.008,0.058c-0.078,0.361-0.149,0.752-0.214,1.165l0.028,0.021c0.121,0,0.278,0,0.483-0.008
			c0.205-0.007,0.299-0.007,0.284-0.007l0.028,0.036c-0.035,0.191-0.057,0.348-0.063,0.483l-0.027,0.028
			c0.007,0-0.093,0-0.286-0.008c-0.193-0.007-0.355-0.007-0.489-0.007l-0.035,0.035c-0.143,1.031-0.222,1.692-0.229,1.982
			c-0.006,0.221,0.064,0.329,0.22,0.329c0.135,0,0.292-0.071,0.463-0.207l0.034,0.006c0.051,0.101,0.136,0.222,0.243,0.363V34.988"
			/>
		<path fill="#AB293B" d="M75.618,32.599c0-0.191-0.12-0.283-0.355-0.283c-0.265,0-0.497,0.114-0.702,0.334
			c-0.221,0.234-0.364,0.539-0.436,0.903l0.021,0.027C75.128,33.36,75.618,33.034,75.618,32.599 M74.075,34.092
			c0,0.498,0.235,0.747,0.697,0.747c0.279,0,0.703-0.228,0.979-0.485l0.036,0.008c0.071,0.136,0.157,0.265,0.264,0.386l-0.006,0.042
			c-0.265,0.214-0.493,0.361-0.683,0.447c-0.229,0.107-0.477,0.157-0.755,0.157c-0.312,0-0.562-0.072-0.753-0.213
			c-0.29-0.221-0.435-0.563-0.435-1.032c0-0.718,0.285-1.427,0.747-1.862c0.349-0.326,0.74-0.49,1.188-0.49
			c0.319,0,0.562,0.085,0.726,0.249c0.126,0.127,0.192,0.277,0.192,0.453c0,0.456-0.236,0.811-0.711,1.075
			c-0.278,0.149-0.769,0.313-1.465,0.483L74.075,34.092z"/>
		<path fill="#AB293B" d="M78.831,32.521l-0.027,0.016l-0.221-0.072c-0.186,0-0.399,0.207-0.64,0.617
			c-0.192,0.328-0.328,0.62-0.406,0.883c-0.005,0.036-0.035,0.207-0.078,0.505c-0.05,0.349-0.071,0.597-0.071,0.755l-0.049,0.063
			l-0.299-0.014l-0.198,0.008l-0.138,0.006l-0.005-0.078c0.056-0.262,0.121-0.654,0.19-1.174c0.136-0.986,0.199-1.584,0.199-1.775
			c0-0.177-0.02-0.341-0.02-0.334c0-0.022,0.02-0.007,0.307-0.031c0.141-0.005,0.283-0.033,0.29-0.033l0.028,0.058l0.027,0.325
			l-0.02,0.371l-0.029,0.233l0.071-0.135c0.071-0.126,0.143-0.256,0.213-0.377c0.094-0.149,0.18-0.264,0.256-0.342
			c0.136-0.127,0.292-0.19,0.469-0.19l0.349,0.085l0.013,0.043C78.953,32.137,78.88,32.33,78.831,32.521"/>
		<path fill="#AB293B" d="M81.206,32.521l-0.028,0.016l-0.221-0.072c-0.185,0-0.397,0.207-0.641,0.617
			c-0.191,0.328-0.326,0.62-0.404,0.883c-0.007,0.036-0.035,0.207-0.076,0.505c-0.053,0.349-0.074,0.597-0.074,0.755l-0.048,0.063
			l-0.3-0.014l-0.199,0.008l-0.134,0.006l-0.007-0.078c0.057-0.262,0.119-0.654,0.19-1.174c0.136-0.986,0.199-1.584,0.199-1.775
			c0-0.177-0.021-0.341-0.021-0.334c0-0.022,0.021-0.007,0.304-0.031c0.144-0.005,0.287-0.033,0.293-0.033l0.028,0.058l0.028,0.325
			l-0.021,0.371l-0.028,0.233l0.07-0.135c0.072-0.126,0.142-0.256,0.216-0.377c0.09-0.149,0.177-0.264,0.254-0.342
			c0.136-0.127,0.291-0.19,0.469-0.19l0.351,0.085l0.015,0.043C81.327,32.137,81.255,32.33,81.206,32.521"/>
		<path fill="#AB293B" d="M83.523,32.599c0-0.191-0.122-0.283-0.356-0.283c-0.262,0-0.497,0.114-0.705,0.334
			c-0.219,0.234-0.361,0.539-0.433,0.903l0.021,0.027C83.032,33.36,83.523,33.034,83.523,32.599 M81.98,34.092
			c0,0.498,0.234,0.747,0.696,0.747c0.277,0,0.703-0.228,0.981-0.485l0.033,0.008c0.072,0.136,0.157,0.265,0.265,0.386l-0.007,0.042
			c-0.263,0.214-0.491,0.362-0.682,0.447c-0.229,0.107-0.477,0.157-0.753,0.157c-0.313,0-0.563-0.072-0.755-0.213
			c-0.292-0.221-0.435-0.563-0.435-1.032c0-0.718,0.286-1.427,0.749-1.862c0.347-0.326,0.738-0.49,1.185-0.49
			c0.321,0,0.563,0.085,0.726,0.249c0.128,0.127,0.192,0.277,0.192,0.453c0,0.456-0.234,0.811-0.711,1.075
			c-0.277,0.149-0.768,0.313-1.464,0.483L81.98,34.092z"/>
		<path fill="#AB293B" d="M87.274,30.241l0.045-0.058h0.134l0.165,0.007l0.179-0.007h0.126l0.07,0.051
			c0.092,0.283,0.222,0.654,0.376,1.108l-0.035,0.063L88.242,31.4h-0.213l-0.078,0.006l-0.078-0.05
			C87.696,31.016,87.497,30.645,87.274,30.241 M88.441,32.544l-0.043-0.072c-0.169-0.086-0.357-0.128-0.554-0.128
			c-0.392,0-0.688,0.2-0.91,0.597c-0.178,0.333-0.271,0.719-0.271,1.166c0,0.44,0.115,0.661,0.342,0.661
			c0.257,0,0.534-0.206,0.84-0.611c0.234-0.307,0.397-0.604,0.496-0.89C88.362,33.09,88.398,32.851,88.441,32.544 M88.178,34.938
			c0-0.142,0.007-0.29,0.028-0.448l0.014-0.171c0.021,0-0.021,0.086-0.126,0.257c-0.115,0.192-0.265,0.356-0.45,0.504
			c-0.263,0.207-0.533,0.314-0.823,0.314c-0.198,0-0.37-0.065-0.512-0.199c-0.207-0.2-0.314-0.52-0.314-0.962
			c0-0.617,0.152-1.155,0.449-1.62c0.348-0.546,0.846-0.816,1.485-0.816c0.291,0,0.554,0.057,0.79,0.172l0.063,0.026l0.213-0.076
			l0.178-0.079l0.015,0.035c0,0.007-0.021,0.164-0.071,0.47c-0.064,0.362-0.106,0.653-0.136,0.888
			c-0.107,0.824-0.164,1.366-0.164,1.628c0,0.276,0.029,0.44,0.029,0.406c0,0.007-0.113,0.015-0.334,0.027l-0.276,0.028
			l-0.029-0.041L88.178,34.938z"/>
		<path fill="#AB293B" d="M92.256,32.871c-0.086,0.646-0.179,1.434-0.271,2.374l-0.058,0.042c-0.155-0.008-0.255-0.014-0.306-0.014
			l-0.32,0.014l-0.026-0.05c0.033-0.163,0.147-0.975,0.34-2.438c0.007-0.021,0.107-0.959,0.313-2.807l0.028-0.036
			c0.165,0.007,0.277,0.015,0.329,0.015l0.204-0.008l0.136-0.007l0.035,0.042C92.589,30.474,92.455,31.427,92.256,32.871"/>
		<path fill="#AB293B" d="M95.34,32.544l-0.041-0.072c-0.171-0.086-0.356-0.128-0.556-0.128c-0.392,0-0.688,0.2-0.909,0.597
			c-0.177,0.333-0.271,0.719-0.271,1.166c0,0.44,0.116,0.661,0.342,0.661c0.256,0,0.533-0.206,0.839-0.611
			c0.234-0.307,0.398-0.604,0.497-0.89C95.263,33.09,95.299,32.851,95.34,32.544 M95.078,34.938c0-0.142,0.008-0.29,0.029-0.448
			l0.015-0.171c0.021,0-0.022,0.086-0.129,0.257c-0.115,0.192-0.263,0.356-0.448,0.504c-0.261,0.207-0.532,0.314-0.824,0.314
			c-0.198,0-0.369-0.065-0.512-0.199c-0.206-0.2-0.313-0.52-0.313-0.962c0-0.617,0.15-1.155,0.448-1.62
			c0.347-0.546,0.845-0.816,1.484-0.816c0.293,0,0.555,0.057,0.789,0.172l0.065,0.026l0.211-0.076l0.179-0.079l0.014,0.035
			c0,0.007-0.021,0.164-0.07,0.47c-0.065,0.362-0.107,0.653-0.134,0.888c-0.107,0.824-0.164,1.366-0.164,1.628
			c0,0.276,0.028,0.44,0.028,0.406c0,0.007-0.114,0.015-0.335,0.027l-0.277,0.028l-0.027-0.041L95.078,34.938z"/>
		<path fill="#AB293B" d="M98.075,31.995l0.043-0.091l0.318,0.015l0.365-0.015l0.048,0.078c0.028,0.205,0.086,0.532,0.171,0.995
			l0.192,1.037c0.063,0.34,0.093,0.512,0.085,0.512c-0.007,0,0.058-0.155,0.198-0.477c0.271-0.59,0.585-1.293,0.939-2.11
			l0.042-0.035l0.299,0.015l0.362-0.015l0.014,0.051c-0.176,0.347-0.454,0.916-0.838,1.697c-0.207,0.419-0.447,0.953-0.737,1.606
			l-0.046,0.028c-0.169-0.006-0.29-0.014-0.354-0.014l-0.328,0.014l-0.013-0.028c-0.093-0.449-0.229-1.075-0.419-1.891
			C98.368,33.161,98.253,32.701,98.075,31.995"/>
		<path fill="#AB293B" d="M102.586,30.801c-0.005,0.077-0.012,0.185-0.026,0.32l-0.042,0.028l-0.319-0.015l-0.307,0.015
			l-0.044-0.028c0,0.052,0.017-0.058,0.052-0.32c0.021-0.192,0.035-0.314,0.035-0.361l0.057-0.028
			c0.149,0.006,0.255,0.012,0.307,0.012l0.312-0.012l0.028,0.028C102.638,30.389,102.625,30.509,102.586,30.801 M102.199,33.673
			c-0.058,0.434-0.114,0.959-0.173,1.593l-0.027,0.021l-0.335-0.014l-0.326,0.014l-0.015-0.036c0.058-0.347,0.149-0.979,0.27-1.896
			c0.031-0.229,0.078-0.705,0.15-1.423l0.027-0.028l0.343,0.015l0.313-0.015l0.021,0.028
			C102.397,32.245,102.313,32.827,102.199,33.673"/>
		<path fill="#AB293B" d="M105.091,32.599c0-0.191-0.121-0.283-0.355-0.283c-0.264,0-0.498,0.114-0.705,0.334
			c-0.22,0.234-0.362,0.539-0.433,0.903l0.021,0.027C104.601,33.36,105.091,33.034,105.091,32.599 M103.549,34.092
			c0,0.498,0.234,0.747,0.695,0.747c0.277,0,0.703-0.228,0.98-0.485l0.035,0.008c0.072,0.136,0.157,0.265,0.264,0.386l-0.006,0.042
			c-0.263,0.214-0.491,0.362-0.684,0.447c-0.228,0.107-0.476,0.157-0.753,0.157c-0.313,0-0.561-0.072-0.753-0.213
			c-0.292-0.221-0.434-0.563-0.434-1.032c0-0.718,0.283-1.427,0.745-1.862c0.35-0.326,0.738-0.49,1.187-0.49
			c0.322,0,0.563,0.085,0.726,0.249c0.13,0.127,0.193,0.277,0.193,0.453c0,0.456-0.235,0.811-0.711,1.075
			c-0.278,0.149-0.769,0.313-1.464,0.483L103.549,34.092z"/>
		<path fill="#AB293B" d="M113.138,11.074c-0.081,0.305-4.259,19.633-13.993,9.957c-3.816-3.791-5.829-12.587,2.764-8.736
			c-2.692,2.16-1.87,5.948,1.518,6.655c6.183,0.729,5.668-6.897,9.438-8.944C113.478,9.674,113.138,11.074,113.138,11.074
			 M107.971,11.741c2.769,2.895-2.729,7.526-5.72,5.847C98.618,15.69,104.52,8.124,107.971,11.741 M103.311,5.375
			c-18.724,2.157-5.293,29.033,11.286,18.965C124.292,18.454,116.791,4.849,103.311,5.375"/>
		<path fill="#AB293B" d="M115.521,6.563c-0.165-0.497-0.65-0.97-1.22-0.871c-0.375,0.063-0.485,0.292-0.518,0.423
			c-0.099,0.403,0.234,0.941,0.61,1.228c0.287,0.218,0.576,0.271,0.815,0.171L115.27,7.5l0.002-0.001h0.003l0.002-0.004
			c0.2-0.107,0.308-0.316,0.308-0.571C115.584,6.812,115.565,6.688,115.521,6.563"/>
		<path fill="#AB293B" d="M117.807,5.602c-0.428,0.073-0.573,0.317-0.62,0.508c-0.122,0.496,0.29,1.159,0.756,1.513
			c0.354,0.27,0.714,0.335,1.004,0.208l0.062-0.015l0.001-0.001l0.003-0.001V7.812c0.242-0.127,0.372-0.381,0.372-0.692
			c0-0.139-0.022-0.287-0.075-0.442C119.103,6.065,118.507,5.481,117.807,5.602"/>
		<path fill="#AB293B" d="M122.581,6.207c-0.55,0.093-0.737,0.403-0.796,0.645c-0.157,0.645,0.382,1.511,0.996,1.977
			c0.49,0.372,0.989,0.464,1.371,0.255l0.004-0.001l0.005-0.002V9.078c0.31-0.162,0.477-0.486,0.477-0.889
			c0-0.179-0.033-0.374-0.101-0.576C124.268,6.814,123.49,6.048,122.581,6.207"/>
		<path fill="#AB293B" d="M114.086,0.021c-0.571,0.097-0.766,0.418-0.826,0.67c-0.164,0.671,0.396,1.572,1.036,2.058
			c0.511,0.389,1.031,0.485,1.429,0.266h0.004l0.006-0.002V3.012c0.323-0.17,0.497-0.5,0.497-0.914c0-0.187-0.037-0.393-0.109-0.61
			C115.843,0.653,115.032-0.142,114.086,0.021"/>
		<path fill="#AB293B" d="M118.918,1.573c-0.505,0.086-0.677,0.37-0.732,0.594c-0.143,0.589,0.348,1.38,0.907,1.805
			c0.426,0.324,0.855,0.402,1.199,0.246l0.063-0.014l0.001-0.001l0.003-0.001L120.36,4.2c0.283-0.149,0.436-0.448,0.436-0.815
			c0-0.166-0.028-0.342-0.089-0.526C120.458,2.127,119.75,1.429,118.918,1.573"/>
	</g>
</g>
</svg>
